<svg aria-hidden="true" style="position: absolute; width: 0; height: 0; overflow: hidden;" version="1.1" xmlns="http://www.w3.org/2000/svg" xmlns:xlink="http://www.w3.org/1999/xlink">
<defs>
<symbol id="icon-print_icon" viewBox="0 0 32 32">
<path d="M28.8 13.44c0 0.707-0.573 1.28-1.28 1.28s-1.28-0.573-1.28-1.28c0-0.707 0.573-1.28 1.28-1.28s1.28 0.573 1.28 1.28z"></path>
<path fill="none" stroke="#000" style="stroke: var(--color1, #000)" stroke-linejoin="miter" stroke-linecap="round" stroke-miterlimit="10" stroke-width="1.28" d="M25.6 9.6v-8.96h-19.2v8.96"></path>
<path fill="none" stroke="#000" style="stroke: var(--color1, #000)" stroke-linejoin="miter" stroke-linecap="round" stroke-miterlimit="10" stroke-width="1.28" d="M25.6 18.56v12.8h-19.2v-12.8h19.2z"></path>
<path fill="none" stroke="#000" style="stroke: var(--color1, #000)" stroke-linejoin="miter" stroke-linecap="round" stroke-miterlimit="10" stroke-width="1.28" d="M6.4 25.6h-4.48c-0.707 0-1.28-0.573-1.28-1.28v-13.44c0-0.707 0.573-1.28 1.28-1.28h28.16c0.707 0 1.28 0.573 1.28 1.28v13.44c0 0.707-0.573 1.28-1.28 1.28h-4.48"></path>
<path fill="none" stroke="#000" style="stroke: var(--color1, #000)" stroke-linejoin="miter" stroke-linecap="round" stroke-miterlimit="10" stroke-width="1.28" d="M22.4 22.4h-12.8"></path>
<path fill="none" stroke="#000" style="stroke: var(--color1, #000)" stroke-linejoin="miter" stroke-linecap="round" stroke-miterlimit="10" stroke-width="1.28" d="M19.84 24.96h-10.24"></path>
<path fill="none" stroke="#000" style="stroke: var(--color1, #000)" stroke-linejoin="miter" stroke-linecap="round" stroke-miterlimit="10" stroke-width="1.28" d="M22.4 27.52h-12.8"></path>
</symbol>
<symbol id="icon-checkmark_round_icon" viewBox="0 0 32 32">
<path d="M28 4.494c-1.081-0.837-2.594-0.581-3.381 0.569l-11.244 16.45-6.194-6.706c-0.912-1.037-2.444-1.088-3.419-0.113-0.975 0.969-1.025 2.6-0.106 3.631 0 0 7.525 8.35 8.606 9.188s2.594 0.581 3.381-0.569l12.894-18.856c0.788-1.156 0.544-2.763-0.538-3.594z"></path>
</symbol>
<symbol id="icon-basket_delete_remove_icon" viewBox="0 0 32 32">
<path d="M25.2 10.667h-18.4c-0.8 0-1.467 0.667-1.333 1.467l2.133 17.467c0.133 1.333 1.333 2.267 2.667 2.267h11.333c1.333 0 2.533-0.933 2.667-2.267l2.133-17.467c0.133-0.8-0.4-1.467-1.2-1.467z"></path>
<path d="M26.667 2.667h-6.667c0-1.467-1.2-2.667-2.667-2.667h-2.667c-1.467 0-2.667 1.2-2.667 2.667v0h-6.667c-1.467 0-2.667 1.2-2.667 2.667v1.333c0 0.8 0.533 1.333 1.333 1.333h24c0.8 0 1.333-0.533 1.333-1.333v-1.333c0-1.467-1.2-2.667-2.667-2.667z"></path>
</symbol>
<symbol id="icon-send_social-media_icon" viewBox="0 0 32 32">
<path stroke-linejoin="round" stroke-linecap="round" stroke-miterlimit="10" stroke-width="1.3289" d="M2.233 15.522c7.229-2.764 28.066-11.269 28.066-11.269l-4.146 24.027c-0.213 1.169-1.595 1.595-2.445 0.851l-6.485-5.422-4.571 4.253 0.744-7.123 13.821-13.076-17.010 10.631 1.063 6.060-3.508-5.635-5.316-1.701c-0.851-0.319-0.957-1.382-0.213-1.595z"></path>
</symbol>
<symbol id="icon-cancel_close_cross_delete_reject_icon" viewBox="0 0 32 32">
<path d="M16 0c-8.837 0-16 7.163-16 16s7.163 16 16 16c8.837 0 16-7.163 16-16v0c-0.010-8.833-7.167-15.99-15.999-16h-0.001zM16 30.5c-8.008 0-14.5-6.492-14.5-14.5s6.492-14.5 14.5-14.5c8.008 0 14.5 6.492 14.5 14.5v0c-0.010 8.004-6.496 14.49-14.499 14.5h-0.001z"></path>
<path d="M23.030 8.947c-0.136-0.136-0.323-0.219-0.53-0.219s-0.394 0.084-0.53 0.219v0l-5.97 5.99-5.968-6c-0.136-0.136-0.324-0.22-0.531-0.22-0.415 0-0.751 0.336-0.751 0.751 0 0.207 0.084 0.395 0.22 0.531v0l5.97 6-5.97 6c-0.135 0.136-0.219 0.323-0.219 0.53 0 0.414 0.336 0.75 0.75 0.75 0.208 0 0.395-0.084 0.531-0.22v0l5.968-5.997 5.97 6c0.136 0.136 0.324 0.22 0.531 0.22 0.415 0 0.751-0.336 0.751-0.751 0-0.207-0.084-0.395-0.22-0.531v0l-5.973-6 5.973-6c0.133-0.135 0.214-0.321 0.214-0.525 0-0.206-0.083-0.392-0.217-0.528l0 0z"></path>
</symbol>
<symbol id="icon-plane_paper-airplane_send_airplane_multimedia_icon" viewBox="0 0 32 32">
<path d="M18.218 28.121c-0.368-0-0.687-0.213-0.84-0.522l-0.002-0.005-4.406-9.058-9.058-4.406c-0.314-0.156-0.527-0.474-0.527-0.843 0-0.392 0.241-0.728 0.583-0.868l0.006-0.002 23.244-9.349c0.104-0.043 0.224-0.068 0.35-0.068 0.518 0 0.938 0.42 0.938 0.938 0 0.126-0.025 0.247-0.070 0.357l0.002-0.006-9.35 23.246c-0.138 0.337-0.459 0.573-0.836 0.587l-0.002 0zM6.631 13.371l7.449 3.625c0.19 0.094 0.339 0.244 0.431 0.428l0.002 0.005 3.625 7.449 7.737-19.253z"></path>
<path d="M13.67 18.772c-0.518-0-0.937-0.42-0.937-0.938 0-0.259 0.105-0.493 0.275-0.663l13.897-13.897c0.17-0.17 0.404-0.274 0.663-0.274 0.518 0 0.938 0.42 0.938 0.938 0 0.259-0.105 0.493-0.275 0.663l-13.897 13.899c-0.169 0.168-0.403 0.272-0.66 0.272-0.001 0-0.002 0-0.003 0h0z"></path>
</symbol>
<symbol id="icon-cross_multimedia_error_delite_icon" viewBox="0 0 32 32">
<path d="M16.063 28.841c-7.125 0-12.921-5.796-12.921-12.921s5.796-12.921 12.921-12.921 12.921 5.796 12.921 12.921-5.796 12.921-12.921 12.921zM16.063 4.875c-6.091 0-11.046 4.955-11.046 11.046s4.955 11.046 11.046 11.046 11.046-4.955 11.046-11.046-4.955-11.046-11.046-11.046z"></path>
<path d="M21.433 22.375c-0 0-0 0-0 0-0.259 0-0.493-0.105-0.663-0.274l-10.74-10.741c-0.177-0.171-0.286-0.41-0.286-0.674 0-0.518 0.42-0.938 0.938-0.938 0.265 0 0.504 0.11 0.674 0.286l10.741 10.741c0.169 0.17 0.274 0.404 0.274 0.663 0 0.518-0.42 0.937-0.937 0.938v0z"></path>
<path d="M10.692 22.375c-0.517-0-0.937-0.42-0.937-0.938 0-0.259 0.105-0.493 0.274-0.663v0l10.74-10.741c0.17-0.17 0.404-0.275 0.663-0.275 0.518 0 0.938 0.42 0.938 0.938 0 0.259-0.105 0.493-0.274 0.663l-10.741 10.741c-0.17 0.17-0.404 0.274-0.663 0.274-0 0-0 0-0 0h0z"></path>
</symbol>
<symbol id="icon-arrows_navigation_arrow_left_back_icon" viewBox="0 0 32 32">
<path d="M22.063 28.125c-0 0-0 0-0 0-0.259 0-0.493-0.105-0.663-0.274l-11.556-11.556c-0.17-0.17-0.274-0.404-0.274-0.663s0.105-0.493 0.274-0.663l11.556-11.556c0.17-0.17 0.404-0.275 0.663-0.275 0.518 0 0.938 0.42 0.938 0.938 0 0.259-0.105 0.493-0.274 0.663l-10.893 10.893 10.893 10.893c0.17 0.17 0.275 0.404 0.275 0.663 0 0.518-0.42 0.938-0.938 0.938-0 0-0 0-0 0h0z"></path>
</symbol>
<symbol id="icon-close_delete_exit_remove_x_icon" viewBox="0 0 32 32">
<path d="M22.063 28.125c-0 0-0 0-0 0-0.259 0-0.493-0.105-0.663-0.274l-11.556-11.556c-0.17-0.17-0.274-0.404-0.274-0.663s0.105-0.493 0.274-0.663l11.556-11.556c0.17-0.17 0.404-0.275 0.663-0.275 0.518 0 0.938 0.42 0.938 0.938 0 0.259-0.105 0.493-0.274 0.663l-10.893 10.893 10.893 10.893c0.17 0.17 0.275 0.404 0.275 0.663 0 0.518-0.42 0.938-0.938 0.938-0 0-0 0-0 0h0z"></path>
</symbol>
<symbol id="icon-bin_delete_remove_trash_garbage_icon" viewBox="0 0 32 32">
<path stroke-linejoin="round" stroke-linecap="round" stroke-miterlimit="6.2" stroke-width="0.4233" d="M6.957 4.208h18.085c0.583 0 1.052 0.467 1.052 1.048v24.896c0 0.581-0.469 1.048-1.052 1.048h-18.085c-0.583 0-1.052-0.467-1.052-1.048v-24.896c0-0.581 0.469-1.048 1.052-1.048z"></path>
<path stroke-linejoin="round" stroke-linecap="round" stroke-miterlimit="4" stroke-width="0.4233" d="M5.982 1.717h20.097"></path>
<path stroke-linejoin="round" stroke-linecap="round" stroke-miterlimit="4" stroke-width="0.4233" d="M10.29 7.694v20.020"></path>
<path stroke-linejoin="round" stroke-linecap="round" stroke-miterlimit="4" stroke-width="0.4233" d="M16 7.694v20.020"></path>
<path stroke-linejoin="round" stroke-linecap="round" stroke-miterlimit="4" stroke-width="0.4233" d="M21.71 7.694v20.020"></path>
<path stroke-linejoin="round" stroke-linecap="round" stroke-miterlimit="4" stroke-width="0.4233" d="M13.080 0.8h5.902"></path>
</symbol>
<symbol id="icon-output_print_printer_icon" viewBox="0 0 32 32">
<path stroke-linejoin="round" stroke-linecap="round" stroke-miterlimit="4" stroke-width="0.4233" d="M13.080 0.8h5.902"></path>
</symbol>
<symbol id="icon-burger_general_ham_list_menu_icon" viewBox="0 0 32 32">
<path fill="#647f94" style="fill: var(--color2, #647f94)" d="M30.141 4.27h-28.080c-0.811 0-1.468-0.657-1.468-1.468s0.657-1.468 1.468-1.468h28.080c0.811 0 1.468 0.657 1.468 1.468s-0.657 1.468-1.468 1.468z"></path>
<path fill="#647f94" style="fill: var(--color2, #647f94)" d="M30.141 17.532h-28.080c-0.811 0-1.468-0.657-1.468-1.468s0.657-1.468 1.468-1.468h28.080c0.811 0 1.468 0.657 1.468 1.468s-0.657 1.468-1.468 1.468z"></path>
<path fill="#647f94" style="fill: var(--color2, #647f94)" d="M30.141 30.794h-28.080c-0.811 0-1.468-0.657-1.468-1.468s0.657-1.468 1.468-1.468h28.080c0.811 0 1.468 0.657 1.468 1.468s-0.657 1.468-1.468 1.468z"></path>
</symbol>
<symbol id="icon-13250031605806463" viewBox="0 0 32 32">
<path d="M25.558 4.048c1.376 0 2.492 1.116 2.492 2.492s-1.116 2.492-2.492 2.492c-0.492 0-0.952-0.143-1.34-0.39-0.016 0.021-0.034 0.042-0.055 0.060l-1.85 1.782c1.233 1.379 2.016 3.169 2.115 5.138h2.586c0.195-1.181 1.223-2.081 2.459-2.081 1.376 0 2.492 1.116 2.492 2.492s-1.116 2.492-2.492 2.492c-1.168 0-2.149-0.804-2.419-1.891-0.013 0-0.026 0.003-0.039 0.003h-2.599c-0.138 1.943-0.939 3.702-2.18 5.050l1.959 1.821c0.018 0.018 0.036 0.036 0.052 0.057 0.38-0.234 0.827-0.369 1.309-0.369 1.376 0 2.492 1.116 2.492 2.492s-1.116 2.492-2.492 2.492-2.492-1.116-2.492-2.492c0-0.531 0.166-1.022 0.45-1.428l-0.008-0.008-2.001-1.858c-1.454 1.238-3.34 1.985-5.398 1.985-2.128 0-4.069-0.796-5.541-2.107l-2.021 1.969c0.276 0.401 0.434 0.885 0.434 1.407 0 1.376-1.116 2.492-2.492 2.492s-2.492-1.116-2.492-2.492c0-1.376 1.116-2.492 2.492-2.492 0.487 0 0.942 0.14 1.327 0.382 0.008-0.010 0.016-0.018 0.026-0.026l2.011-1.959c-1.184-1.345-1.941-3.073-2.061-4.977l-2.851 0.029c-0.229 1.142-1.236 2.003-2.446 2.003-1.376 0-2.492-1.116-2.492-2.492s1.116-2.492 2.492-2.492c1.197 0 2.198 0.843 2.438 1.969h0.013l2.841-0.029c0.109-1.923 0.872-3.668 2.066-5.026l-2.115-2.021c-0.016-0.016-0.031-0.031-0.044-0.049-0.346 0.185-0.744 0.286-1.163 0.286-1.376 0-2.492-1.116-2.492-2.492 0-1.374 1.116-2.49 2.492-2.49s2.492 1.116 2.492 2.492c0 0.588-0.203 1.129-0.546 1.556l2.092 1.998c1.473-1.311 3.413-2.107 5.539-2.107 2.102 0 4.022 0.778 5.489 2.063l1.868-1.8c0.010-0.010 0.023-0.021 0.036-0.031-0.273-0.401-0.432-0.882-0.432-1.402 0-1.376 1.116-2.492 2.492-2.492v0zM14.936 16.905l0.695 2.042 0.349-1.212-0.172-0.187c-0.078-0.112-0.094-0.211-0.052-0.297 0.094-0.185 0.284-0.148 0.463-0.148 0.187 0 0.419-0.036 0.479 0.2 0.021 0.078-0.005 0.161-0.060 0.245l-0.172 0.187 0.349 1.212 0.63-2.042c0.453 0.408 1.798 0.489 2.297 0.77 0.159 0.088 0.302 0.2 0.416 0.351 0.174 0.229 0.281 0.531 0.31 0.911l0.104 1.012c-0.026 0.271-0.18 0.427-0.479 0.447h-7.802c-0.302-0.023-0.455-0.18-0.479-0.447l0.104-1.012c0.029-0.382 0.135-0.682 0.31-0.911 0.114-0.151 0.258-0.263 0.416-0.351 0.499-0.281 1.842-0.362 2.295-0.77v0zM14.749 13.817c0.008 0.016 0.010 0.031 0.010 0.049 0 0.008 0 0.016-0.003 0.026l0.013 0.096c-0.034 0.008-0.065 0.008-0.096 0.008-0.013 0.005-0.029 0.008-0.042 0.008-0.086 0.003-0.148 0.018-0.19 0.047-0.021 0.016-0.039 0.034-0.047 0.055-0.013 0.026-0.018 0.057-0.016 0.094 0.003 0.114 0.065 0.263 0.182 0.437l0.003 0.003 0.388 0.617c0.156 0.247 0.317 0.497 0.518 0.682 0.19 0.174 0.424 0.294 0.728 0.294 0.333 0 0.575-0.122 0.773-0.307 0.208-0.193 0.372-0.46 0.533-0.728l0.437-0.718c0.088-0.2 0.114-0.323 0.086-0.38-0.018-0.039-0.096-0.047-0.226-0.036-0.039 0.003-0.078-0.010-0.104-0.036-0.010 0-0.021 0-0.031-0.003l0.005-0.031c-0.008-0.016-0.013-0.031-0.016-0.049-0.005-0.044 0.016-0.086 0.047-0.114l0.091-0.46c-0.799-0.010-1.345-0.148-1.993-0.562-0.213-0.135-0.276-0.291-0.489-0.276-0.161 0.031-0.297 0.104-0.403 0.219-0.104 0.112-0.18 0.263-0.232 0.455l0.073 0.614zM18.055 13.82c0.094 0.029 0.161 0.081 0.203 0.164 0.065 0.133 0.039 0.33-0.083 0.611v0c-0.003 0.005-0.005 0.010-0.008 0.016l-0.442 0.728c-0.172 0.281-0.346 0.565-0.578 0.783-0.242 0.229-0.544 0.38-0.952 0.377-0.382 0-0.671-0.148-0.908-0.364-0.226-0.208-0.401-0.473-0.565-0.734l-0.388-0.617c-0.146-0.216-0.219-0.414-0.224-0.575-0.003-0.078 0.010-0.151 0.039-0.213 0.031-0.065 0.078-0.122 0.14-0.164 0.031-0.021 0.065-0.039 0.104-0.052-0.023-0.33-0.031-0.741-0.016-1.085 0.008-0.083 0.023-0.166 0.047-0.252 0.099-0.354 0.349-0.64 0.656-0.835 0.109-0.070 0.226-0.127 0.354-0.172 0.747-0.271 1.733-0.122 2.263 0.45 0.216 0.234 0.351 0.541 0.38 0.952l-0.023 0.981zM21.276 10.867c-0.016-0.013-0.029-0.026-0.042-0.039-0.008-0.008-0.013-0.016-0.021-0.023-1.319-1.285-3.119-2.076-5.104-2.076-1.99 0-3.793 0.793-5.112 2.081-0.016 0.023-0.034 0.044-0.052 0.065-0.026 0.026-0.052 0.049-0.083 0.070-1.28 1.319-2.071 3.117-2.071 5.099 0 2.021 0.819 3.85 2.144 5.175s3.153 2.144 5.175 2.144c2.021 0 3.85-0.82 5.175-2.144s2.144-3.153 2.144-5.175c0-2.021-0.82-3.85-2.144-5.175l-0.008-0.003z"></path>
</symbol>
<symbol id="icon-16096534681582799504" viewBox="0 0 32 32">
<path d="M22.164 2c-2.33 0-4.229 1.84-4.229 4.079 0 1.293 0.644 2.443 1.63 3.192-0.777 0.432-1.464 1.040-2.028 1.743-0.973 1.211-1.588 2.728-1.751 4.296h-4.299v-0.459h4.047v-8.331h-12.077v8.331h4.050v0.458l-5.508 0.003v14.688h28v-14.688h-0.006v-0.003h-1.438c-0.163-1.568-0.778-3.085-1.751-4.296-0.566-0.704-1.256-1.313-2.038-1.746 0.983-0.75 1.63-1.897 1.63-3.189 0-2.239-1.902-4.079-4.232-4.079zM22.164 3.572c1.442 0 2.605 1.11 2.605 2.507 0 1.373-1.125 2.466-2.532 2.504-0.025-0-0.048-0.008-0.073-0.008s-0.049 0.008-0.073 0.008c-1.407-0.034-2.516-1.131-2.516-2.504 0-1.397 1.147-2.507 2.59-2.507zM5.087 8.090h8.808v5.201h-8.808zM22.113 10.154c0.017 0 0.034 0.008 0.051 0.008s0.034-0.008 0.051-0.008c1.226 0.019 2.406 0.693 3.301 1.807 0.737 0.917 1.037 2.154 1.205 3.348h-9.102c0.169-1.194 0.469-2.431 1.205-3.348 0.895-1.114 2.062-1.788 3.288-1.807zM3.633 16.874h24.728v0.731h-24.728zM3.626 19.17h24.734v9.258h-24.734z"></path>
</symbol>
<symbol id="icon-18250023281582799504" viewBox="0 0 32 32">
<path d="M4.365 3c-1.288 0-2.346 1.096-2.346 2.431v2.205c-0.024 0.115-0.024 0.234 0 0.348v13.674l0.034 0.121c0.514 1.719 1.181 3.427 1.759 5.137l0.658 1.965 0.798-1.905c0.699-1.67 1.442-3.62 2.047-5.124l0.058-0.158v-16.263c0-1.334-1.058-2.431-2.346-2.431zM9.534 3.298v25.668h0.624v0.034h8.149v-0.034h7.069c6.186-6.408-1.563 1.688 4.623-4.72v-20.948zM4.365 4.629h0.661c0.447 0 0.786 0.338 0.786 0.802v1.569h-2.221v-1.569c0-0.464 0.327-0.802 0.774-0.802zM11.107 4.914h17.321v16.792h-5.399v5.641h-4.791c-0.142-0.955-0.507-1.865-1.049-2.611-0.27-0.372-0.604-0.689-0.964-0.963 0.489-0.532 0.789-1.253 0.789-2.041 0-0.531-0.144-1.027-0.382-1.461h10.129c1.043-0.004 1.043-1.623 0-1.629h-14.002c-0.619 0.002-0.993 0.71-0.661 1.252-0.39 0.507-0.633 1.144-0.633 1.838 0 0.785 0.3 1.503 0.786 2.034-0.364 0.276-0.698 0.595-0.97 0.97-0.065 0.089-0.115 0.192-0.174 0.285zM23.172 6.983c-0.030-0.001-0.059 0-0.089 0.003h-6.647c-0.022-0.001-0.045-0.001-0.067 0-0.958 0.121-0.897 1.581 0.067 1.616h6.647c1.072 0.096 1.164-1.59 0.089-1.619zM3.591 8.628h2.221v12.742c-0.367 0.917-0.799 1.975-1.214 3.020-0.354-1.002-0.716-2.022-1.006-2.982zM12.759 10.196c-1.059-0.011-1.059 1.64 0 1.629h14.002c1.059 0.011 1.059-1.64 0-1.629zM12.759 13.574c-1.043 0.004-1.043 1.623 0 1.629h14.002c1.043-0.004 1.043-1.624 0-1.629zM26.849 16.11c-0.030-0.001-0.059 0-0.089 0.003h-14.002c-0.022-0.001-0.045-0.001-0.067 0-0.958 0.121-0.897 1.581 0.067 1.616h14.002c1.072 0.096 1.164-1.589 0.089-1.619zM14.239 20.426c0.664 0 1.202 0.559 1.202 1.306 0 0.734-0.521 1.292-1.169 1.312-0.012-0-0.022-0.008-0.034-0.008s-0.022 0.008-0.034 0.008c-0.648-0.019-1.181-0.578-1.181-1.312 0-0.747 0.55-1.306 1.214-1.306zM24.601 23.322h3.791c-3.791 3.893 0 0-3.791 3.893zM12.86 25.341l1.363 1.294 1.406-1.288c0.107 0.11 0.214 0.226 0.312 0.361 0.322 0.443 0.399 1.058 0.523 1.638h-4.457c0.125-0.581 0.213-1.195 0.535-1.638 0.101-0.139 0.208-0.255 0.318-0.368z"></path>
</symbol>
<symbol id="icon-7790168201650696343" viewBox="0 0 32 32">
<path d="M24.154 13.6c-1.363 0-2.6 0.551-3.501 1.441-0.032 0.026-0.016 0.010-0.043 0.043-1.952 1.975-1.896 5.111 0.019 7.026 1.954 1.954 5.111 1.938 7.049 0 0.007-0.007 0.013-0.016 0.019-0.024 0.89-0.901 1.441-2.138 1.441-3.501 0-2.737-2.225-4.985-4.985-4.985zM27.895 18.892h0.616c-0.068 0.973-0.456 1.86-1.060 2.554l-0.434-0.434c-0.12-0.12-0.315-0.12-0.435 0s-0.12 0.315 0 0.435l0.434 0.434c-0.695 0.604-1.581 0.992-2.554 1.060v-0.616c0-0.17-0.138-0.308-0.308-0.308s-0.308 0.138-0.308 0.308v0.616c-0.973-0.068-1.86-0.456-2.554-1.060l0.434-0.434c0.12-0.12 0.12-0.315 0-0.435s-0.315-0.12-0.435 0l-0.434 0.434c-0.604-0.695-0.992-1.581-1.060-2.554h0.616c0.17 0 0.308-0.138 0.308-0.308s-0.138-0.308-0.308-0.308h-0.616c0.068-0.973 0.456-1.86 1.060-2.554l0.434 0.434c0.060 0.060 0.139 0.090 0.218 0.090 0.271 0 0.412-0.33 0.218-0.525l-0.434-0.434c0.695-0.604 1.581-0.992 2.554-1.060v0.616c0 0.17 0.138 0.308 0.308 0.308s0.308-0.138 0.308-0.308v-0.616c0.973 0.068 1.86 0.456 2.554 1.060l-0.434 0.434c-0.195 0.195-0.054 0.525 0.218 0.525 0.079 0 0.158-0.030 0.218-0.090l0.434-0.434c0.604 0.695 0.992 1.581 1.060 2.554h-0.616c-0.17 0-0.308 0.138-0.308 0.308s0.138 0.308 0.308 0.308z"></path>
<path d="M25.386 17.861l-1.222 0.815-1.697-1.272c-0.136-0.102-0.329-0.074-0.431 0.062s-0.074 0.329 0.062 0.431l1.871 1.403c0.104 0.078 0.246 0.083 0.355 0.010l1.403-0.935c0.141-0.094 0.18-0.285 0.085-0.427s-0.285-0.18-0.427-0.085z"></path>
<path d="M26.194 23.735c-0.649 0.257-1.336 0.388-2.040 0.388-3.054 0-5.538-2.485-5.538-5.538s2.485-5.539 5.538-5.539c0.705 0 1.391 0.131 2.040 0.388 0.202 0.080 0.421-0.069 0.421-0.286-0.002-7.98 0.010-7.443-0.017-7.522-0.006-0.017-0.002-0.017-0.027-0.059-0.004-0.006-0.012-0.028-0.047-0.062-3.93-3.927-3.705-3.729-3.812-3.765-0.111-0.038 0.64-0.008-14.867-0.017-0.17 0-0.308 0.138-0.308 0.308v2.708h-2.154c-0.17 0-0.308 0.138-0.308 0.308v24.923c0 0.17 0.138 0.308 0.308 0.308h17.231c0.17 0 0.308-0.138 0.308-0.308v-2.4h3.385c0.17 0 0.308-0.138 0.308-0.308v-3.24c0-0.217-0.219-0.366-0.421-0.286zM22.923 2.774l2.642 2.642h-2.642v-2.642zM22.308 29.662h-16.615v-24.308h1.846v21.908c0 0.17 0.138 0.308 0.308 0.308h14.462v2.092zM26 26.954h-17.846v-24.615h14.154v3.385c0 0.17 0.138 0.308 0.308 0.308h3.385v6.682c-0.595-0.187-1.214-0.282-1.846-0.282-3.393 0-6.154 2.761-6.154 6.154s2.761 6.154 6.154 6.154c0.632 0 1.251-0.095 1.846-0.282v2.497z"></path>
<path d="M11.231 7.508h-2.154c-0.17 0-0.308 0.138-0.308 0.308v2.154c0 0.17 0.138 0.308 0.308 0.308h2.154c0.17 0 0.308-0.138 0.308-0.308v-2.154c0-0.17-0.138-0.308-0.308-0.308zM10.923 9.662h-1.538v-1.538h1.538v1.538z"></path>
<path d="M12.462 9.969h7.385c0.17 0 0.308-0.138 0.308-0.308s-0.138-0.308-0.308-0.308h-7.385c-0.17 0-0.308 0.138-0.308 0.308s0.138 0.308 0.308 0.308z"></path>
<path d="M12.462 9.046h4.615c0.17 0 0.308-0.138 0.308-0.308s-0.138-0.308-0.308-0.308h-4.615c-0.17 0-0.308 0.138-0.308 0.308s0.138 0.308 0.308 0.308z"></path>
<path d="M11.231 11.2h-2.154c-0.17 0-0.308 0.138-0.308 0.308v2.154c0 0.17 0.138 0.308 0.308 0.308h2.154c0.17 0 0.308-0.138 0.308-0.308v-2.154c0-0.17-0.138-0.308-0.308-0.308zM10.923 13.354h-1.538v-1.538h1.538v1.538z"></path>
<path d="M12.462 13.662h6.769c0.17 0 0.308-0.138 0.308-0.308s-0.138-0.308-0.308-0.308h-6.769c-0.17 0-0.308 0.138-0.308 0.308s0.138 0.308 0.308 0.308z"></path>
<path d="M12.462 12.739h4.615c0.17 0 0.308-0.138 0.308-0.308s-0.138-0.308-0.308-0.308h-4.615c-0.17 0-0.308 0.138-0.308 0.308s0.138 0.308 0.308 0.308z"></path>
<path d="M11.231 14.892h-2.154c-0.17 0-0.308 0.138-0.308 0.308v2.154c0 0.17 0.138 0.308 0.308 0.308h2.154c0.17 0 0.308-0.138 0.308-0.308v-2.154c0-0.17-0.138-0.308-0.308-0.308zM10.923 17.046h-1.538v-1.539h1.538v1.539z"></path>
<path d="M12.462 17.354h4.615c0.17 0 0.308-0.138 0.308-0.308s-0.138-0.308-0.308-0.308h-4.615c-0.17 0-0.308 0.138-0.308 0.308s0.138 0.308 0.308 0.308z"></path>
<path d="M12.462 16.431h3.146c0.17 0 0.308-0.138 0.308-0.308s-0.138-0.308-0.308-0.308h-3.146c-0.17 0-0.308 0.138-0.308 0.308s0.138 0.308 0.308 0.308z"></path>
<path d="M11.231 18.585h-2.154c-0.17 0-0.308 0.138-0.308 0.308v2.154c0 0.17 0.138 0.308 0.308 0.308h2.154c0.17 0 0.308-0.138 0.308-0.308v-2.154c0-0.17-0.138-0.308-0.308-0.308zM10.923 20.739h-1.538v-1.538h1.538v1.538z"></path>
<path d="M12.462 21.046h4.615c0.17 0 0.308-0.138 0.308-0.308s-0.138-0.308-0.308-0.308h-4.615c-0.17 0-0.308 0.138-0.308 0.308s0.138 0.308 0.308 0.308z"></path>
<path d="M12.462 20.123h3.033c0.17 0 0.308-0.138 0.308-0.308s-0.138-0.308-0.308-0.308h-3.033c-0.17 0-0.308 0.138-0.308 0.308s0.138 0.308 0.308 0.308z"></path>
<path d="M11.231 22.277h-2.154c-0.17 0-0.308 0.138-0.308 0.308v2.154c0 0.17 0.138 0.308 0.308 0.308h2.154c0.17 0 0.308-0.138 0.308-0.308v-2.154c0-0.17-0.138-0.308-0.308-0.308zM10.923 24.431h-1.538v-1.538h1.538v1.538z"></path>
<path d="M17.692 24.123h-5.231c-0.17 0-0.308 0.138-0.308 0.308s0.138 0.308 0.308 0.308h5.231c0.17 0 0.308-0.138 0.308-0.308s-0.138-0.308-0.308-0.308z"></path>
<path d="M12.462 23.816h3.385c0.17 0 0.308-0.138 0.308-0.308s-0.138-0.308-0.308-0.308h-3.385c-0.17 0-0.308 0.138-0.308 0.308s0.138 0.308 0.308 0.308z"></path>
<path d="M3.231 7.816c-0.679 0-1.231 0.552-1.231 1.231s0.552 1.231 1.231 1.231 1.231-0.552 1.231-1.231c0-0.679-0.552-1.231-1.231-1.231zM3.231 9.662c-0.339 0-0.615-0.276-0.615-0.615s0.276-0.615 0.615-0.615 0.615 0.276 0.615 0.615c0 0.339-0.276 0.615-0.615 0.615z"></path>
<path d="M28.769 8.123c-0.848 0-1.538 0.69-1.538 1.538s0.69 1.538 1.538 1.538c0.848 0 1.538-0.69 1.538-1.538s-0.69-1.538-1.538-1.538zM28.769 10.585c-0.509 0-0.923-0.414-0.923-0.923s0.414-0.923 0.923-0.923c0.509 0 0.923 0.414 0.923 0.923s-0.414 0.923-0.923 0.923z"></path>
<path d="M27.846 3.969c0 0.255-0.207 0.462-0.462 0.462s-0.462-0.207-0.462-0.462c0-0.255 0.207-0.462 0.462-0.462s0.462 0.207 0.462 0.462z"></path>
<path d="M28.462 13.2c0 0.255-0.207 0.462-0.462 0.462s-0.462-0.207-0.462-0.462c0-0.255 0.207-0.462 0.462-0.462s0.462 0.207 0.462 0.462z"></path>
<path d="M2.923 3.969c0 0.255-0.207 0.462-0.462 0.462s-0.462-0.207-0.462-0.462c0-0.255 0.207-0.462 0.462-0.462s0.462 0.207 0.462 0.462z"></path>
<path d="M4.462 12.892c0 0.255-0.207 0.462-0.462 0.462s-0.462-0.207-0.462-0.462c0-0.255 0.207-0.462 0.462-0.462s0.462 0.207 0.462 0.462z"></path>
<path d="M2.923 23.969c0 0.255-0.207 0.462-0.462 0.462s-0.462-0.207-0.462-0.462c0-0.255 0.207-0.462 0.462-0.462s0.462 0.207 0.462 0.462z"></path>
<path d="M28.769 23.662c0 0.255-0.207 0.462-0.462 0.462s-0.462-0.207-0.462-0.462c0-0.255 0.207-0.462 0.462-0.462s0.462 0.207 0.462 0.462z"></path>
<path d="M26.308 29.2c0 0.255-0.207 0.462-0.462 0.462s-0.462-0.207-0.462-0.462c0-0.255 0.207-0.462 0.462-0.462s0.462 0.207 0.462 0.462z"></path>
</symbol>
</defs>
</svg>
