<?xml version="1.0" encoding="iso-8859-1"?>
<!-- Generator: Adobe Illustrator 19.0.0, SVG Export Plug-In . SVG Version: 6.00 Build 0)  -->
<svg version="1.1" xmlns="http://www.w3.org/2000/svg" xmlns:xlink="http://www.w3.org/1999/xlink" x="0px" y="0px"
	 viewBox="0 0 520 520" style="enable-background:new 0 0 520 520;" xml:space="preserve">
<g id="_x37_81_x2C__Business_x2C__List_x2C__Management_x2C__Task_x2C__Time">
	<g>
		<path d="M392.5,221.001c-22.153,0-42.252,8.947-56.89,23.409c-0.526,0.43-0.265,0.165-0.7,0.7
			c-31.717,32.101-30.803,83.049,0.314,114.167c31.755,31.755,83.06,31.491,114.551,0c0.119-0.119,0.208-0.256,0.314-0.383
			c14.463-14.639,23.411-34.737,23.411-56.892C473.5,257.526,437.336,221.001,392.5,221.001z M453.3,307.002h10.005
			c-1.107,15.819-7.414,30.219-17.226,41.508l-7.052-7.052c-1.951-1.952-5.119-1.952-7.07,0c-1.953,1.953-1.953,5.119,0,7.071
			l7.051,7.051c-11.288,9.813-25.689,16.119-41.508,17.227v-10.005c0-2.762-2.238-5-5-5c-2.762,0-5,2.238-5,5v10.005
			c-15.819-1.107-30.22-7.414-41.508-17.227l7.051-7.051c1.953-1.952,1.953-5.118,0-7.071c-1.951-1.952-5.119-1.952-7.07,0
			l-7.052,7.052c-9.811-11.289-16.118-25.689-17.226-41.508H331.7c2.762,0,5-2.239,5-5c0-2.762-2.238-5-5-5h-10.005
			c1.107-15.819,7.414-30.219,17.227-41.508l7.051,7.051c0.975,0.977,2.256,1.465,3.535,1.465c4.407,0,6.701-5.37,3.535-8.536
			l-7.051-7.051c11.289-9.812,25.689-16.119,41.508-17.226v10.004c0,2.761,2.238,5,5,5c2.762,0,5-2.239,5-5v-10.004
			c15.819,1.107,30.219,7.413,41.508,17.226l-7.051,7.051c-3.166,3.166-0.871,8.536,3.535,8.536c1.279,0,2.56-0.488,3.535-1.465
			l7.051-7.051c9.813,11.29,16.119,25.689,17.227,41.508H453.3c-2.762,0-5,2.238-5,5C448.3,304.763,450.538,307.002,453.3,307.002z"
			/>
		<path d="M412.526,290.242l-19.857,13.236l-27.57-20.677c-2.209-1.657-5.343-1.209-7,1c-1.657,2.209-1.209,5.343,1,7l30.4,22.8
			c1.685,1.264,3.995,1.344,5.773,0.16l22.8-15.199c2.298-1.532,2.919-4.636,1.387-6.934
			C417.93,289.331,414.824,288.709,412.526,290.242z"/>
		<path d="M425.657,385.696c-10.551,4.184-21.707,6.306-33.157,6.306c-49.626,0-90-40.374-90-90c0-49.627,40.374-90.001,90-90.001
			c11.45,0,22.606,2.122,33.157,6.305c3.276,1.298,6.843-1.117,6.843-4.648c-0.036-129.677,0.156-120.946-0.278-122.234
			c-0.094-0.283-0.029-0.276-0.432-0.954c-0.06-0.101-0.203-0.454-0.756-1.007c-63.863-63.813-60.205-60.593-61.938-61.179
			c-1.805-0.612,10.4-0.122-241.596-0.284c-2.761,0-5,2.239-5,5v44h-35c-2.761,0-5,2.239-5,5v405.001c0,2.761,2.239,5,5,5h280
			c2.762,0,5-2.239,5-5v-39h55c2.762,0,5-2.239,5-5v-52.657C432.5,386.82,428.939,384.393,425.657,385.696z M372.5,45.073
			l42.929,42.929H372.5V45.073z M362.5,482.002h-270V87.002h30v356.001c0,2.761,2.239,5,5,5h235V482.002z M422.5,438.002h-290
			V38.001h230v55c0,2.761,2.238,5,5,5h55v108.58c-9.669-3.042-19.73-4.58-30-4.58c-55.141,0-100,44.86-100,100.001
			c0,55.14,44.859,100,100,100c10.27,0,20.331-1.538,30-4.58V438.002z"/>
		<path d="M182.5,122.002h-35c-2.761,0-5,2.239-5,5v35c0,2.761,2.239,5,5,5h35c2.761,0,5-2.239,5-5v-35
			C187.5,124.24,185.261,122.002,182.5,122.002z M177.5,157.001h-25v-25h25V157.001z"/>
		<path d="M202.5,162.001h120c2.762,0,5-2.239,5-5c0-2.761-2.238-5-5-5h-120c-2.761,0-5,2.239-5,5
			C197.5,159.763,199.739,162.001,202.5,162.001z"/>
		<path d="M202.5,147.001h75c2.762,0,5-2.239,5-5c0-2.761-2.238-5-5-5h-75c-2.761,0-5,2.239-5,5
			C197.5,144.763,199.739,147.001,202.5,147.001z"/>
		<path d="M182.5,182.001h-35c-2.761,0-5,2.239-5,5v35c0,2.761,2.239,5,5,5h35c2.761,0,5-2.239,5-5v-35
			C187.5,184.24,185.261,182.001,182.5,182.001z M177.5,217.001h-25v-25h25V217.001z"/>
		<path d="M202.5,222.001h110c2.762,0,5-2.239,5-5c0-2.761-2.238-5-5-5h-110c-2.761,0-5,2.239-5,5
			C197.5,219.763,199.739,222.001,202.5,222.001z"/>
		<path d="M202.5,207.001h75c2.762,0,5-2.239,5-5c0-2.761-2.238-5-5-5h-75c-2.761,0-5,2.239-5,5
			C197.5,204.763,199.739,207.001,202.5,207.001z"/>
		<path d="M182.5,242.001h-35c-2.761,0-5,2.239-5,5v35.001c0,2.761,2.239,5,5,5h35c2.761,0,5-2.239,5-5v-35.001
			C187.5,244.24,185.261,242.001,182.5,242.001z M177.5,277.002h-25v-25.001h25V277.002z"/>
		<path d="M202.5,282.002h75c2.762,0,5-2.239,5-5c0-2.762-2.238-5-5-5h-75c-2.761,0-5,2.238-5,5
			C197.5,279.763,199.739,282.002,202.5,282.002z"/>
		<path d="M202.5,267.002h51.128c2.761,0,5-2.239,5-5c0-2.762-2.239-5-5-5H202.5c-2.761,0-5,2.238-5,5
			C197.5,264.763,199.739,267.002,202.5,267.002z"/>
		<path d="M182.5,302.002h-35c-2.761,0-5,2.238-5,5v35c0,2.761,2.239,5,5,5h35c2.761,0,5-2.239,5-5v-35
			C187.5,304.24,185.261,302.002,182.5,302.002z M177.5,337.002h-25v-25h25V337.002z"/>
		<path d="M202.5,342.002h75c2.762,0,5-2.239,5-5c0-2.762-2.238-5-5-5h-75c-2.761,0-5,2.238-5,5
			C197.5,339.763,199.739,342.002,202.5,342.002z"/>
		<path d="M202.5,327.002h49.286c2.761,0,5-2.239,5-5c0-2.762-2.239-5-5-5H202.5c-2.761,0-5,2.238-5,5
			C197.5,324.763,199.739,327.002,202.5,327.002z"/>
		<path d="M182.5,362.002h-35c-2.761,0-5,2.238-5,5v35c0,2.761,2.239,5,5,5h35c2.761,0,5-2.239,5-5v-35
			C187.5,364.24,185.261,362.002,182.5,362.002z M177.5,397.002h-25v-25h25V397.002z"/>
		<path d="M287.5,392.002h-85c-2.761,0-5,2.238-5,5c0,2.761,2.239,5,5,5h85c2.762,0,5-2.239,5-5
			C292.5,394.24,290.262,392.002,287.5,392.002z"/>
		<path d="M202.5,387.002h55c2.762,0,5-2.239,5-5c0-2.762-2.238-5-5-5h-55c-2.761,0-5,2.238-5,5
			C197.5,384.763,199.739,387.002,202.5,387.002z"/>
		<path d="M52.5,127.002c-11.028,0-20,8.972-20,20c0,11.028,8.972,20,20,20s20-8.972,20-20
			C72.5,135.974,63.528,127.002,52.5,127.002z M52.5,157.001c-5.514,0-10-4.486-10-10c0-5.514,4.486-10,10-10s10,4.486,10,10
			C62.5,152.516,58.014,157.001,52.5,157.001z"/>
		<path d="M467.5,132.001c-13.785,0-25,11.215-25,25c0,13.785,11.215,25,25,25c13.785,0,25-11.215,25-25
			C492.5,143.216,481.285,132.001,467.5,132.001z M467.5,172.001c-8.272,0-15-6.729-15-15c0-8.271,6.728-15,15-15
			c8.271,0,15,6.729,15,15C482.5,165.273,475.771,172.001,467.5,172.001z"/>
		<circle cx="445" cy="64.5" r="7.5"/>
		<circle cx="455" cy="214.5" r="7.5"/>
		<circle cx="40" cy="64.5" r="7.5"/>
		<circle cx="65" cy="209.5" r="7.5"/>
		<circle cx="40" cy="389.5" r="7.5"/>
		<circle cx="460" cy="384.5" r="7.5"/>
		<circle cx="420" cy="474.5" r="7.5"/>
	</g>
</g>
<g id="Layer_1">
</g>
</svg>
