<!-- Generated by IcoMoon.io -->
<svg version="1.1" xmlns="http://www.w3.org/2000/svg" width="32" height="32" viewBox="0 0 32 32">
<title>13250031605806463</title>
<path d="M25.558 4.048c1.376 0 2.492 1.116 2.492 2.492s-1.116 2.492-2.492 2.492c-0.492 0-0.952-0.143-1.34-0.39-0.016 0.021-0.034 0.042-0.055 0.060l-1.85 1.782c1.233 1.379 2.016 3.169 2.115 5.138h2.586c0.195-1.181 1.223-2.081 2.459-2.081 1.376 0 2.492 1.116 2.492 2.492s-1.116 2.492-2.492 2.492c-1.168 0-2.149-0.804-2.419-1.891-0.013 0-0.026 0.003-0.039 0.003h-2.599c-0.138 1.943-0.939 3.702-2.18 5.050l1.959 1.821c0.018 0.018 0.036 0.036 0.052 0.057 0.38-0.234 0.827-0.369 1.309-0.369 1.376 0 2.492 1.116 2.492 2.492s-1.116 2.492-2.492 2.492-2.492-1.116-2.492-2.492c0-0.531 0.166-1.022 0.45-1.428l-0.008-0.008-2.001-1.858c-1.454 1.238-3.34 1.985-5.398 1.985-2.128 0-4.069-0.796-5.541-2.107l-2.021 1.969c0.276 0.401 0.434 0.885 0.434 1.407 0 1.376-1.116 2.492-2.492 2.492s-2.492-1.116-2.492-2.492c0-1.376 1.116-2.492 2.492-2.492 0.487 0 0.942 0.14 1.327 0.382 0.008-0.010 0.016-0.018 0.026-0.026l2.011-1.959c-1.184-1.345-1.941-3.073-2.061-4.977l-2.851 0.029c-0.229 1.142-1.236 2.003-2.446 2.003-1.376 0-2.492-1.116-2.492-2.492s1.116-2.492 2.492-2.492c1.197 0 2.198 0.843 2.438 1.969h0.013l2.841-0.029c0.109-1.923 0.872-3.668 2.066-5.026l-2.115-2.021c-0.016-0.016-0.031-0.031-0.044-0.049-0.346 0.185-0.744 0.286-1.163 0.286-1.376 0-2.492-1.116-2.492-2.492 0-1.374 1.116-2.49 2.492-2.49s2.492 1.116 2.492 2.492c0 0.588-0.203 1.129-0.546 1.556l2.092 1.998c1.473-1.311 3.413-2.107 5.539-2.107 2.102 0 4.022 0.778 5.489 2.063l1.868-1.8c0.010-0.010 0.023-0.021 0.036-0.031-0.273-0.401-0.432-0.882-0.432-1.402 0-1.376 1.116-2.492 2.492-2.492v0zM14.936 16.905l0.695 2.042 0.349-1.212-0.172-0.187c-0.078-0.112-0.094-0.211-0.052-0.297 0.094-0.185 0.284-0.148 0.463-0.148 0.187 0 0.419-0.036 0.479 0.2 0.021 0.078-0.005 0.161-0.060 0.245l-0.172 0.187 0.349 1.212 0.63-2.042c0.453 0.408 1.798 0.489 2.297 0.77 0.159 0.088 0.302 0.2 0.416 0.351 0.174 0.229 0.281 0.531 0.31 0.911l0.104 1.012c-0.026 0.271-0.18 0.427-0.479 0.447h-7.802c-0.302-0.023-0.455-0.18-0.479-0.447l0.104-1.012c0.029-0.382 0.135-0.682 0.31-0.911 0.114-0.151 0.258-0.263 0.416-0.351 0.499-0.281 1.842-0.362 2.295-0.77v0zM14.749 13.817c0.008 0.016 0.010 0.031 0.010 0.049 0 0.008 0 0.016-0.003 0.026l0.013 0.096c-0.034 0.008-0.065 0.008-0.096 0.008-0.013 0.005-0.029 0.008-0.042 0.008-0.086 0.003-0.148 0.018-0.19 0.047-0.021 0.016-0.039 0.034-0.047 0.055-0.013 0.026-0.018 0.057-0.016 0.094 0.003 0.114 0.065 0.263 0.182 0.437l0.003 0.003 0.388 0.617c0.156 0.247 0.317 0.497 0.518 0.682 0.19 0.174 0.424 0.294 0.728 0.294 0.333 0 0.575-0.122 0.773-0.307 0.208-0.193 0.372-0.46 0.533-0.728l0.437-0.718c0.088-0.2 0.114-0.323 0.086-0.38-0.018-0.039-0.096-0.047-0.226-0.036-0.039 0.003-0.078-0.010-0.104-0.036-0.010 0-0.021 0-0.031-0.003l0.005-0.031c-0.008-0.016-0.013-0.031-0.016-0.049-0.005-0.044 0.016-0.086 0.047-0.114l0.091-0.46c-0.799-0.010-1.345-0.148-1.993-0.562-0.213-0.135-0.276-0.291-0.489-0.276-0.161 0.031-0.297 0.104-0.403 0.219-0.104 0.112-0.18 0.263-0.232 0.455l0.073 0.614zM18.055 13.82c0.094 0.029 0.161 0.081 0.203 0.164 0.065 0.133 0.039 0.33-0.083 0.611v0c-0.003 0.005-0.005 0.010-0.008 0.016l-0.442 0.728c-0.172 0.281-0.346 0.565-0.578 0.783-0.242 0.229-0.544 0.38-0.952 0.377-0.382 0-0.671-0.148-0.908-0.364-0.226-0.208-0.401-0.473-0.565-0.734l-0.388-0.617c-0.146-0.216-0.219-0.414-0.224-0.575-0.003-0.078 0.010-0.151 0.039-0.213 0.031-0.065 0.078-0.122 0.14-0.164 0.031-0.021 0.065-0.039 0.104-0.052-0.023-0.33-0.031-0.741-0.016-1.085 0.008-0.083 0.023-0.166 0.047-0.252 0.099-0.354 0.349-0.64 0.656-0.835 0.109-0.070 0.226-0.127 0.354-0.172 0.747-0.271 1.733-0.122 2.263 0.45 0.216 0.234 0.351 0.541 0.38 0.952l-0.023 0.981zM21.276 10.867c-0.016-0.013-0.029-0.026-0.042-0.039-0.008-0.008-0.013-0.016-0.021-0.023-1.319-1.285-3.119-2.076-5.104-2.076-1.99 0-3.793 0.793-5.112 2.081-0.016 0.023-0.034 0.044-0.052 0.065-0.026 0.026-0.052 0.049-0.083 0.070-1.28 1.319-2.071 3.117-2.071 5.099 0 2.021 0.819 3.85 2.144 5.175s3.153 2.144 5.175 2.144c2.021 0 3.85-0.82 5.175-2.144s2.144-3.153 2.144-5.175c0-2.021-0.82-3.85-2.144-5.175l-0.008-0.003z"></path>
</svg>
