<!-- Generated by IcoMoon.io -->
<svg version="1.1" xmlns="http://www.w3.org/2000/svg" width="32" height="32" viewBox="0 0 32 32">
<title>16096534681582799504</title>
<path d="M22.164 2c-2.33 0-4.229 1.84-4.229 4.079 0 1.293 0.644 2.443 1.63 3.192-0.777 0.432-1.464 1.040-2.028 1.743-0.973 1.211-1.588 2.728-1.751 4.296h-4.299v-0.459h4.047v-8.331h-12.077v8.331h4.050v0.458l-5.508 0.003v14.688h28v-14.688h-0.006v-0.003h-1.438c-0.163-1.568-0.778-3.085-1.751-4.296-0.566-0.704-1.256-1.313-2.038-1.746 0.983-0.75 1.63-1.897 1.63-3.189 0-2.239-1.902-4.079-4.232-4.079zM22.164 3.572c1.442 0 2.605 1.11 2.605 2.507 0 1.373-1.125 2.466-2.532 2.504-0.025-0-0.048-0.008-0.073-0.008s-0.049 0.008-0.073 0.008c-1.407-0.034-2.516-1.131-2.516-2.504 0-1.397 1.147-2.507 2.59-2.507zM5.087 8.090h8.808v5.201h-8.808zM22.113 10.154c0.017 0 0.034 0.008 0.051 0.008s0.034-0.008 0.051-0.008c1.226 0.019 2.406 0.693 3.301 1.807 0.737 0.917 1.037 2.154 1.205 3.348h-9.102c0.169-1.194 0.469-2.431 1.205-3.348 0.895-1.114 2.062-1.788 3.288-1.807zM3.633 16.874h24.728v0.731h-24.728zM3.626 19.17h24.734v9.258h-24.734z"></path>
</svg>
