<!-- Generated by IcoMoon.io -->
<svg version="1.1" xmlns="http://www.w3.org/2000/svg" width="32" height="32" viewBox="0 0 32 32">
<title>18250023281582799504</title>
<path d="M4.365 3c-1.288 0-2.346 1.096-2.346 2.431v2.205c-0.024 0.115-0.024 0.234 0 0.348v13.674l0.034 0.121c0.514 1.719 1.181 3.427 1.759 5.137l0.658 1.965 0.798-1.905c0.699-1.67 1.442-3.62 2.047-5.124l0.058-0.158v-16.263c0-1.334-1.058-2.431-2.346-2.431zM9.534 3.298v25.668h0.624v0.034h8.149v-0.034h7.069c6.186-6.408-1.563 1.688 4.623-4.72v-20.948zM4.365 4.629h0.661c0.447 0 0.786 0.338 0.786 0.802v1.569h-2.221v-1.569c0-0.464 0.327-0.802 0.774-0.802zM11.107 4.914h17.321v16.792h-5.399v5.641h-4.791c-0.142-0.955-0.507-1.865-1.049-2.611-0.27-0.372-0.604-0.689-0.964-0.963 0.489-0.532 0.789-1.253 0.789-2.041 0-0.531-0.144-1.027-0.382-1.461h10.129c1.043-0.004 1.043-1.623 0-1.629h-14.002c-0.619 0.002-0.993 0.71-0.661 1.252-0.39 0.507-0.633 1.144-0.633 1.838 0 0.785 0.3 1.503 0.786 2.034-0.364 0.276-0.698 0.595-0.97 0.97-0.065 0.089-0.115 0.192-0.174 0.285zM23.172 6.983c-0.030-0.001-0.059 0-0.089 0.003h-6.647c-0.022-0.001-0.045-0.001-0.067 0-0.958 0.121-0.897 1.581 0.067 1.616h6.647c1.072 0.096 1.164-1.59 0.089-1.619zM3.591 8.628h2.221v12.742c-0.367 0.917-0.799 1.975-1.214 3.020-0.354-1.002-0.716-2.022-1.006-2.982zM12.759 10.196c-1.059-0.011-1.059 1.64 0 1.629h14.002c1.059 0.011 1.059-1.64 0-1.629zM12.759 13.574c-1.043 0.004-1.043 1.623 0 1.629h14.002c1.043-0.004 1.043-1.624 0-1.629zM26.849 16.11c-0.030-0.001-0.059 0-0.089 0.003h-14.002c-0.022-0.001-0.045-0.001-0.067 0-0.958 0.121-0.897 1.581 0.067 1.616h14.002c1.072 0.096 1.164-1.589 0.089-1.619zM14.239 20.426c0.664 0 1.202 0.559 1.202 1.306 0 0.734-0.521 1.292-1.169 1.312-0.012-0-0.022-0.008-0.034-0.008s-0.022 0.008-0.034 0.008c-0.648-0.019-1.181-0.578-1.181-1.312 0-0.747 0.55-1.306 1.214-1.306zM24.601 23.322h3.791c-3.791 3.893 0 0-3.791 3.893zM12.86 25.341l1.363 1.294 1.406-1.288c0.107 0.11 0.214 0.226 0.312 0.361 0.322 0.443 0.399 1.058 0.523 1.638h-4.457c0.125-0.581 0.213-1.195 0.535-1.638 0.101-0.139 0.208-0.255 0.318-0.368z"></path>
</svg>
