<!-- Generated by IcoMoon.io -->
<svg version="1.1" xmlns="http://www.w3.org/2000/svg" width="32" height="32" viewBox="0 0 32 32">
<title>7790168201650696343</title>
<path d="M24.154 13.6c-1.363 0-2.6 0.551-3.501 1.441-0.032 0.026-0.016 0.010-0.043 0.043-1.952 1.975-1.896 5.111 0.019 7.026 1.954 1.954 5.111 1.938 7.049 0 0.007-0.007 0.013-0.016 0.019-0.024 0.89-0.901 1.441-2.138 1.441-3.501 0-2.737-2.225-4.985-4.985-4.985zM27.895 18.892h0.616c-0.068 0.973-0.456 1.86-1.060 2.554l-0.434-0.434c-0.12-0.12-0.315-0.12-0.435 0s-0.12 0.315 0 0.435l0.434 0.434c-0.695 0.604-1.581 0.992-2.554 1.060v-0.616c0-0.17-0.138-0.308-0.308-0.308s-0.308 0.138-0.308 0.308v0.616c-0.973-0.068-1.86-0.456-2.554-1.060l0.434-0.434c0.12-0.12 0.12-0.315 0-0.435s-0.315-0.12-0.435 0l-0.434 0.434c-0.604-0.695-0.992-1.581-1.060-2.554h0.616c0.17 0 0.308-0.138 0.308-0.308s-0.138-0.308-0.308-0.308h-0.616c0.068-0.973 0.456-1.86 1.060-2.554l0.434 0.434c0.060 0.060 0.139 0.090 0.218 0.090 0.271 0 0.412-0.33 0.218-0.525l-0.434-0.434c0.695-0.604 1.581-0.992 2.554-1.060v0.616c0 0.17 0.138 0.308 0.308 0.308s0.308-0.138 0.308-0.308v-0.616c0.973 0.068 1.86 0.456 2.554 1.060l-0.434 0.434c-0.195 0.195-0.054 0.525 0.218 0.525 0.079 0 0.158-0.030 0.218-0.090l0.434-0.434c0.604 0.695 0.992 1.581 1.060 2.554h-0.616c-0.17 0-0.308 0.138-0.308 0.308s0.138 0.308 0.308 0.308z"></path>
<path d="M25.386 17.861l-1.222 0.815-1.697-1.272c-0.136-0.102-0.329-0.074-0.431 0.062s-0.074 0.329 0.062 0.431l1.871 1.403c0.104 0.078 0.246 0.083 0.355 0.010l1.403-0.935c0.141-0.094 0.18-0.285 0.085-0.427s-0.285-0.18-0.427-0.085z"></path>
<path d="M26.194 23.735c-0.649 0.257-1.336 0.388-2.040 0.388-3.054 0-5.538-2.485-5.538-5.538s2.485-5.539 5.538-5.539c0.705 0 1.391 0.131 2.040 0.388 0.202 0.080 0.421-0.069 0.421-0.286-0.002-7.98 0.010-7.443-0.017-7.522-0.006-0.017-0.002-0.017-0.027-0.059-0.004-0.006-0.012-0.028-0.047-0.062-3.93-3.927-3.705-3.729-3.812-3.765-0.111-0.038 0.64-0.008-14.867-0.017-0.17 0-0.308 0.138-0.308 0.308v2.708h-2.154c-0.17 0-0.308 0.138-0.308 0.308v24.923c0 0.17 0.138 0.308 0.308 0.308h17.231c0.17 0 0.308-0.138 0.308-0.308v-2.4h3.385c0.17 0 0.308-0.138 0.308-0.308v-3.24c0-0.217-0.219-0.366-0.421-0.286zM22.923 2.774l2.642 2.642h-2.642v-2.642zM22.308 29.662h-16.615v-24.308h1.846v21.908c0 0.17 0.138 0.308 0.308 0.308h14.462v2.092zM26 26.954h-17.846v-24.615h14.154v3.385c0 0.17 0.138 0.308 0.308 0.308h3.385v6.682c-0.595-0.187-1.214-0.282-1.846-0.282-3.393 0-6.154 2.761-6.154 6.154s2.761 6.154 6.154 6.154c0.632 0 1.251-0.095 1.846-0.282v2.497z"></path>
<path d="M11.231 7.508h-2.154c-0.17 0-0.308 0.138-0.308 0.308v2.154c0 0.17 0.138 0.308 0.308 0.308h2.154c0.17 0 0.308-0.138 0.308-0.308v-2.154c0-0.17-0.138-0.308-0.308-0.308zM10.923 9.662h-1.538v-1.538h1.538v1.538z"></path>
<path d="M12.462 9.969h7.385c0.17 0 0.308-0.138 0.308-0.308s-0.138-0.308-0.308-0.308h-7.385c-0.17 0-0.308 0.138-0.308 0.308s0.138 0.308 0.308 0.308z"></path>
<path d="M12.462 9.046h4.615c0.17 0 0.308-0.138 0.308-0.308s-0.138-0.308-0.308-0.308h-4.615c-0.17 0-0.308 0.138-0.308 0.308s0.138 0.308 0.308 0.308z"></path>
<path d="M11.231 11.2h-2.154c-0.17 0-0.308 0.138-0.308 0.308v2.154c0 0.17 0.138 0.308 0.308 0.308h2.154c0.17 0 0.308-0.138 0.308-0.308v-2.154c0-0.17-0.138-0.308-0.308-0.308zM10.923 13.354h-1.538v-1.538h1.538v1.538z"></path>
<path d="M12.462 13.662h6.769c0.17 0 0.308-0.138 0.308-0.308s-0.138-0.308-0.308-0.308h-6.769c-0.17 0-0.308 0.138-0.308 0.308s0.138 0.308 0.308 0.308z"></path>
<path d="M12.462 12.739h4.615c0.17 0 0.308-0.138 0.308-0.308s-0.138-0.308-0.308-0.308h-4.615c-0.17 0-0.308 0.138-0.308 0.308s0.138 0.308 0.308 0.308z"></path>
<path d="M11.231 14.892h-2.154c-0.17 0-0.308 0.138-0.308 0.308v2.154c0 0.17 0.138 0.308 0.308 0.308h2.154c0.17 0 0.308-0.138 0.308-0.308v-2.154c0-0.17-0.138-0.308-0.308-0.308zM10.923 17.046h-1.538v-1.539h1.538v1.539z"></path>
<path d="M12.462 17.354h4.615c0.17 0 0.308-0.138 0.308-0.308s-0.138-0.308-0.308-0.308h-4.615c-0.17 0-0.308 0.138-0.308 0.308s0.138 0.308 0.308 0.308z"></path>
<path d="M12.462 16.431h3.146c0.17 0 0.308-0.138 0.308-0.308s-0.138-0.308-0.308-0.308h-3.146c-0.17 0-0.308 0.138-0.308 0.308s0.138 0.308 0.308 0.308z"></path>
<path d="M11.231 18.585h-2.154c-0.17 0-0.308 0.138-0.308 0.308v2.154c0 0.17 0.138 0.308 0.308 0.308h2.154c0.17 0 0.308-0.138 0.308-0.308v-2.154c0-0.17-0.138-0.308-0.308-0.308zM10.923 20.739h-1.538v-1.538h1.538v1.538z"></path>
<path d="M12.462 21.046h4.615c0.17 0 0.308-0.138 0.308-0.308s-0.138-0.308-0.308-0.308h-4.615c-0.17 0-0.308 0.138-0.308 0.308s0.138 0.308 0.308 0.308z"></path>
<path d="M12.462 20.123h3.033c0.17 0 0.308-0.138 0.308-0.308s-0.138-0.308-0.308-0.308h-3.033c-0.17 0-0.308 0.138-0.308 0.308s0.138 0.308 0.308 0.308z"></path>
<path d="M11.231 22.277h-2.154c-0.17 0-0.308 0.138-0.308 0.308v2.154c0 0.17 0.138 0.308 0.308 0.308h2.154c0.17 0 0.308-0.138 0.308-0.308v-2.154c0-0.17-0.138-0.308-0.308-0.308zM10.923 24.431h-1.538v-1.538h1.538v1.538z"></path>
<path d="M17.692 24.123h-5.231c-0.17 0-0.308 0.138-0.308 0.308s0.138 0.308 0.308 0.308h5.231c0.17 0 0.308-0.138 0.308-0.308s-0.138-0.308-0.308-0.308z"></path>
<path d="M12.462 23.816h3.385c0.17 0 0.308-0.138 0.308-0.308s-0.138-0.308-0.308-0.308h-3.385c-0.17 0-0.308 0.138-0.308 0.308s0.138 0.308 0.308 0.308z"></path>
<path d="M3.231 7.816c-0.679 0-1.231 0.552-1.231 1.231s0.552 1.231 1.231 1.231 1.231-0.552 1.231-1.231c0-0.679-0.552-1.231-1.231-1.231zM3.231 9.662c-0.339 0-0.615-0.276-0.615-0.615s0.276-0.615 0.615-0.615 0.615 0.276 0.615 0.615c0 0.339-0.276 0.615-0.615 0.615z"></path>
<path d="M28.769 8.123c-0.848 0-1.538 0.69-1.538 1.538s0.69 1.538 1.538 1.538c0.848 0 1.538-0.69 1.538-1.538s-0.69-1.538-1.538-1.538zM28.769 10.585c-0.509 0-0.923-0.414-0.923-0.923s0.414-0.923 0.923-0.923c0.509 0 0.923 0.414 0.923 0.923s-0.414 0.923-0.923 0.923z"></path>
<path d="M27.846 3.969c0 0.255-0.207 0.462-0.462 0.462s-0.462-0.207-0.462-0.462c0-0.255 0.207-0.462 0.462-0.462s0.462 0.207 0.462 0.462z"></path>
<path d="M28.462 13.2c0 0.255-0.207 0.462-0.462 0.462s-0.462-0.207-0.462-0.462c0-0.255 0.207-0.462 0.462-0.462s0.462 0.207 0.462 0.462z"></path>
<path d="M2.923 3.969c0 0.255-0.207 0.462-0.462 0.462s-0.462-0.207-0.462-0.462c0-0.255 0.207-0.462 0.462-0.462s0.462 0.207 0.462 0.462z"></path>
<path d="M4.462 12.892c0 0.255-0.207 0.462-0.462 0.462s-0.462-0.207-0.462-0.462c0-0.255 0.207-0.462 0.462-0.462s0.462 0.207 0.462 0.462z"></path>
<path d="M2.923 23.969c0 0.255-0.207 0.462-0.462 0.462s-0.462-0.207-0.462-0.462c0-0.255 0.207-0.462 0.462-0.462s0.462 0.207 0.462 0.462z"></path>
<path d="M28.769 23.662c0 0.255-0.207 0.462-0.462 0.462s-0.462-0.207-0.462-0.462c0-0.255 0.207-0.462 0.462-0.462s0.462 0.207 0.462 0.462z"></path>
<path d="M26.308 29.2c0 0.255-0.207 0.462-0.462 0.462s-0.462-0.207-0.462-0.462c0-0.255 0.207-0.462 0.462-0.462s0.462 0.207 0.462 0.462z"></path>
</svg>
