<!-- Generated by IcoMoon.io -->
<svg version="1.1" xmlns="http://www.w3.org/2000/svg" width="32" height="32" viewBox="0 0 32 32">
<title>basket_delete_remove_icon</title>
<path d="M25.2 10.667h-18.4c-0.8 0-1.467 0.667-1.333 1.467l2.133 17.467c0.133 1.333 1.333 2.267 2.667 2.267h11.333c1.333 0 2.533-0.933 2.667-2.267l2.133-17.467c0.133-0.8-0.4-1.467-1.2-1.467z"></path>
<path d="M26.667 2.667h-6.667c0-1.467-1.2-2.667-2.667-2.667h-2.667c-1.467 0-2.667 1.2-2.667 2.667v0h-6.667c-1.467 0-2.667 1.2-2.667 2.667v1.333c0 0.8 0.533 1.333 1.333 1.333h24c0.8 0 1.333-0.533 1.333-1.333v-1.333c0-1.467-1.2-2.667-2.667-2.667z"></path>
</svg>
