<!-- Generated by IcoMoon.io -->
<svg version="1.1" xmlns="http://www.w3.org/2000/svg" width="32" height="32" viewBox="0 0 32 32">
<title>burger_general_ham_list_menu_icon</title>
<path fill="#647f94" d="M30.141 4.27h-28.080c-0.811 0-1.468-0.657-1.468-1.468s0.657-1.468 1.468-1.468h28.080c0.811 0 1.468 0.657 1.468 1.468s-0.657 1.468-1.468 1.468z"></path>
<path fill="#647f94" d="M30.141 17.532h-28.080c-0.811 0-1.468-0.657-1.468-1.468s0.657-1.468 1.468-1.468h28.080c0.811 0 1.468 0.657 1.468 1.468s-0.657 1.468-1.468 1.468z"></path>
<path fill="#647f94" d="M30.141 30.794h-28.080c-0.811 0-1.468-0.657-1.468-1.468s0.657-1.468 1.468-1.468h28.080c0.811 0 1.468 0.657 1.468 1.468s-0.657 1.468-1.468 1.468z"></path>
</svg>
