<!-- Generated by IcoMoon.io -->
<svg version="1.1" xmlns="http://www.w3.org/2000/svg" width="32" height="32" viewBox="0 0 32 32">
<title>cancel_close_cross_delete_reject_icon</title>
<path d="M16 0c-8.837 0-16 7.163-16 16s7.163 16 16 16c8.837 0 16-7.163 16-16v0c-0.010-8.833-7.167-15.99-15.999-16h-0.001zM16 30.5c-8.008 0-14.5-6.492-14.5-14.5s6.492-14.5 14.5-14.5c8.008 0 14.5 6.492 14.5 14.5v0c-0.010 8.004-6.496 14.49-14.499 14.5h-0.001z"></path>
<path d="M23.030 8.947c-0.136-0.136-0.323-0.219-0.53-0.219s-0.394 0.084-0.53 0.219v0l-5.97 5.99-5.968-6c-0.136-0.136-0.324-0.22-0.531-0.22-0.415 0-0.751 0.336-0.751 0.751 0 0.207 0.084 0.395 0.22 0.531v0l5.97 6-5.97 6c-0.135 0.136-0.219 0.323-0.219 0.53 0 0.414 0.336 0.75 0.75 0.75 0.208 0 0.395-0.084 0.531-0.22v0l5.968-5.997 5.97 6c0.136 0.136 0.324 0.22 0.531 0.22 0.415 0 0.751-0.336 0.751-0.751 0-0.207-0.084-0.395-0.22-0.531v0l-5.973-6 5.973-6c0.133-0.135 0.214-0.321 0.214-0.525 0-0.206-0.083-0.392-0.217-0.528l0 0z"></path>
</svg>
