<!-- Generated by IcoMoon.io -->
<svg version="1.1" xmlns="http://www.w3.org/2000/svg" width="32" height="32" viewBox="0 0 32 32">
<title>close_delete_exit_remove_x_icon</title>
<path d="M22.063 28.125c-0 0-0 0-0 0-0.259 0-0.493-0.105-0.663-0.274l-11.556-11.556c-0.17-0.17-0.274-0.404-0.274-0.663s0.105-0.493 0.274-0.663l11.556-11.556c0.17-0.17 0.404-0.275 0.663-0.275 0.518 0 0.938 0.42 0.938 0.938 0 0.259-0.105 0.493-0.274 0.663l-10.893 10.893 10.893 10.893c0.17 0.17 0.275 0.404 0.275 0.663 0 0.518-0.42 0.938-0.938 0.938-0 0-0 0-0 0h0z"></path>
</svg>
