<!-- Generated by IcoMoon.io -->
<svg version="1.1" xmlns="http://www.w3.org/2000/svg" width="32" height="32" viewBox="0 0 32 32">
<title>cross_multimedia_error_delite_icon</title>
<path d="M16.063 28.841c-7.125 0-12.921-5.796-12.921-12.921s5.796-12.921 12.921-12.921 12.921 5.796 12.921 12.921-5.796 12.921-12.921 12.921zM16.063 4.875c-6.091 0-11.046 4.955-11.046 11.046s4.955 11.046 11.046 11.046 11.046-4.955 11.046-11.046-4.955-11.046-11.046-11.046z"></path>
<path d="M21.433 22.375c-0 0-0 0-0 0-0.259 0-0.493-0.105-0.663-0.274l-10.74-10.741c-0.177-0.171-0.286-0.41-0.286-0.674 0-0.518 0.42-0.938 0.938-0.938 0.265 0 0.504 0.11 0.674 0.286l10.741 10.741c0.169 0.17 0.274 0.404 0.274 0.663 0 0.518-0.42 0.937-0.937 0.938v0z"></path>
<path d="M10.692 22.375c-0.517-0-0.937-0.42-0.937-0.938 0-0.259 0.105-0.493 0.274-0.663v0l10.74-10.741c0.17-0.17 0.404-0.275 0.663-0.275 0.518 0 0.938 0.42 0.938 0.938 0 0.259-0.105 0.493-0.274 0.663l-10.741 10.741c-0.17 0.17-0.404 0.274-0.663 0.274-0 0-0 0-0 0h0z"></path>
</svg>
