<!-- Generated by IcoMoon.io -->
<svg version="1.1" xmlns="http://www.w3.org/2000/svg" width="32" height="32" viewBox="0 0 32 32">
<title>plane_paper-airplane_send_airplane_multimedia_icon</title>
<path d="M18.218 28.121c-0.368-0-0.687-0.213-0.84-0.522l-0.002-0.005-4.406-9.058-9.058-4.406c-0.314-0.156-0.527-0.474-0.527-0.843 0-0.392 0.241-0.728 0.583-0.868l0.006-0.002 23.244-9.349c0.104-0.043 0.224-0.068 0.35-0.068 0.518 0 0.938 0.42 0.938 0.938 0 0.126-0.025 0.247-0.070 0.357l0.002-0.006-9.35 23.246c-0.138 0.337-0.459 0.573-0.836 0.587l-0.002 0zM6.631 13.371l7.449 3.625c0.19 0.094 0.339 0.244 0.431 0.428l0.002 0.005 3.625 7.449 7.737-19.253z"></path>
<path d="M13.67 18.772c-0.518-0-0.937-0.42-0.937-0.938 0-0.259 0.105-0.493 0.275-0.663l13.897-13.897c0.17-0.17 0.404-0.274 0.663-0.274 0.518 0 0.938 0.42 0.938 0.938 0 0.259-0.105 0.493-0.275 0.663l-13.897 13.899c-0.169 0.168-0.403 0.272-0.66 0.272-0.001 0-0.002 0-0.003 0h0z"></path>
</svg>
