<!-- Generated by IcoMoon.io -->
<svg version="1.1" xmlns="http://www.w3.org/2000/svg" width="32" height="32" viewBox="0 0 32 32">
<title>print_icon</title>
<path d="M28.8 13.44c0 0.707-0.573 1.28-1.28 1.28s-1.28-0.573-1.28-1.28c0-0.707 0.573-1.28 1.28-1.28s1.28 0.573 1.28 1.28z"></path>
<path fill="none" stroke="#000" stroke-linejoin="miter" stroke-linecap="round" stroke-miterlimit="10" stroke-width="1.28" d="M25.6 9.6v-8.96h-19.2v8.96"></path>
<path fill="none" stroke="#000" stroke-linejoin="miter" stroke-linecap="round" stroke-miterlimit="10" stroke-width="1.28" d="M25.6 18.56v12.8h-19.2v-12.8h19.2z"></path>
<path fill="none" stroke="#000" stroke-linejoin="miter" stroke-linecap="round" stroke-miterlimit="10" stroke-width="1.28" d="M6.4 25.6h-4.48c-0.707 0-1.28-0.573-1.28-1.28v-13.44c0-0.707 0.573-1.28 1.28-1.28h28.16c0.707 0 1.28 0.573 1.28 1.28v13.44c0 0.707-0.573 1.28-1.28 1.28h-4.48"></path>
<path fill="none" stroke="#000" stroke-linejoin="miter" stroke-linecap="round" stroke-miterlimit="10" stroke-width="1.28" d="M22.4 22.4h-12.8"></path>
<path fill="none" stroke="#000" stroke-linejoin="miter" stroke-linecap="round" stroke-miterlimit="10" stroke-width="1.28" d="M19.84 24.96h-10.24"></path>
<path fill="none" stroke="#000" stroke-linejoin="miter" stroke-linecap="round" stroke-miterlimit="10" stroke-width="1.28" d="M22.4 27.52h-12.8"></path>
</svg>
